<?xml version="1.0" encoding="UTF-8" standalone="no"?>
<svg
   version="1.1"
   viewBox="-5 -10 100 100"
   id="svg6"
   sodipodi:docname="file.svg"
   width="100"
   height="100"
   inkscape:version="1.4 (e7c3feb1, 2024-10-09)"
   xmlns:inkscape="http://www.inkscape.org/namespaces/inkscape"
   xmlns:sodipodi="http://sodipodi.sourceforge.net/DTD/sodipodi-0.dtd"
   xmlns="http://www.w3.org/2000/svg"
   xmlns:svg="http://www.w3.org/2000/svg">
  <defs
     id="defs6" />
  <sodipodi:namedview
     id="namedview6"
     pagecolor="#ffffff"
     bordercolor="#000000"
     borderopacity="0.25"
     inkscape:showpageshadow="2"
     inkscape:pageopacity="0.0"
     inkscape:pagecheckerboard="0"
     inkscape:deskcolor="#d1d1d1"
     showgrid="false"
     inkscape:zoom="1"
     inkscape:cx="55"
     inkscape:cy="67"
     inkscape:window-width="1400"
     inkscape:window-height="847"
     inkscape:window-x="46"
     inkscape:window-y="25"
     inkscape:window-maximized="0"
     inkscape:current-layer="svg6" />
  <path
     d="m 18.41,67.039 h 8.3398 l 28.641,10.422 c 0.58984,0.21094 1.1992,0.30859 1.8008,0.30859 2.2695,0 4.3984,-1.4219 5.1797,-3.6797 l 16.391,-47.07 c 0.48047,-1.3789 0.39844,-2.8711 -0.23828,-4.1914 -0.64063,-1.3203 -1.75,-2.3086 -3.1289,-2.7891 l -16.121,-5.6094 v -2.7109 c 0,-3.0195 -2.4609,-5.4805 -5.4805,-5.4805 h -26.691 c -0.12891,0 -0.26172,0.01172 -0.39062,0.03906 C 26.66122,6.28937 26.61044,6.3089 26.55184,6.32843 26.48153,6.34796 26.4034,6.36749 26.33309,6.39874 26.2745,6.42999 26.212,6.45733 26.1534,6.5003 26.10262,6.53155 26.04402,6.55108 25.99324,6.59014 25.88386,6.66045 25.7823,6.7503 25.69246,6.84014 l -12.172,12.199 c -0.01172,0.01172 -0.01172,0.01953 -0.01953,0.03125 -0.07813,0.08984 -0.16016,0.17969 -0.23047,0.28125 -0.03125,0.05078 -0.05859,0.10156 -0.07813,0.14844 -0.03125,0.05859 -0.07031,0.12109 -0.10156,0.19141 -0.03125,0.05859 -0.03906,0.12891 -0.05859,0.19922 -0.01953,0.05859 -0.03906,0.10938 -0.05078,0.17188 -0.01953,0.10938 -0.03125,0.21875 -0.03125,0.32812 0,0.01953 -0.01172,0.03906 -0.01172,0.05859 v 41.102 c -0.0078,3.0273 2.4531,5.4883 5.4727,5.4883 z m 55.66,-43.23 c 0.37109,0.12891 0.67188,0.39844 0.85156,0.76172 0.17969,0.35938 0.19922,0.76172 0.07031,1.1289 l -16.391,47.07 c -0.26953,0.76953 -1.1211,1.1797 -1.8594,0.92188 l -18.281,-6.6484 h 15.328 c 3.0195,0 5.4805,-2.4609 5.4805,-5.4805 V 18.6646 Z M 55.261,11.719 v 49.84 c 0,0.82031 -0.67188,1.4805 -1.4805,1.4805 h -26.422 c -0.23828,-0.03906 -0.46875,-0.03906 -0.69922,0 h -8.2383 c -0.82031,0 -1.4805,-0.67187 -1.4805,-1.4805 V 22.457 h 7.5508 c 2.5508,0 4.6211,-2.0703 4.6211,-4.6211 v -7.6016 h 24.68 c 0.80859,-0.0039 1.4688,0.66406 1.4688,1.4844 z m -35.523,6.7422 5.3594,-5.3789 v 4.7617 c 0,0.33984 -0.28125,0.62109 -0.62109,0.62109 z"
     id="path1" />
  <path
     d="m 23.941,26.859 c 0,1.1016 0.89844,2 2,2 h 19.77 c 1.1016,0 2,-0.89844 2,-2 0,-1.10156 -0.89844,-2 -2,-2 h -19.77 c -1.1016,0 -2,0.89062 -2,2 z"
     id="path2" />
  <path
     d="m 45.711,32.73 h -19.77 c -1.1016,0 -2,0.89844 -2,2 0,1.1016 0.89844,2 2,2 h 19.77 c 1.1016,0 2,-0.89844 2,-2 0,-1.1016 -0.89063,-2 -2,-2 z"
     id="path3" />
  <path
     d="m 45.711,40.602 h -19.77 c -1.1016,0 -2,0.89844 -2,2 0,1.1016 0.89844,2 2,2 h 19.77 c 1.1016,0 2,-0.89844 2,-2 0,-1.1016 -0.89063,-2 -2,-2 z"
     id="path4" />
  <path
     d="m 45.711,48.469 h -19.77 c -1.1016,0 -2,0.89844 -2,2 0,1.10156 0.89844,2 2,2 h 19.77 c 1.1016,0 2,-0.89844 2,-2 0,-1.0977 -0.89063,-2 -2,-2 z"
     id="path5" />
  <text
     x="0"
     y="117.5"
     font-size="5px"
     font-weight="bold"
     font-family="'Arbeit Regular', Helvetica, Arial-Unicode, Arial, Sans-serif"
     fill="#000000"
     id="text5">Created by Acharyas</text>
  <text
     x="0"
     y="122.5"
     font-size="5px"
     font-weight="bold"
     font-family="'Arbeit Regular', Helvetica, Arial-Unicode, Arial, Sans-serif"
     fill="#000000"
     id="text6">from Noun Project</text>
</svg>
