<?xml version="1.0" encoding="UTF-8" standalone="no"?>
<svg
   version="1.1"
   viewBox="-5 -10 100 100"
   id="svg2"
   sodipodi:docname="folder.svg"
   width="100"
   height="100"
   inkscape:version="1.4 (e7c3feb1, 2024-10-09)"
   xmlns:inkscape="http://www.inkscape.org/namespaces/inkscape"
   xmlns:sodipodi="http://sodipodi.sourceforge.net/DTD/sodipodi-0.dtd"
   xmlns="http://www.w3.org/2000/svg"
   xmlns:svg="http://www.w3.org/2000/svg">
  <defs
     id="defs2" />
  <sodipodi:namedview
     id="namedview2"
     pagecolor="#ffffff"
     bordercolor="#000000"
     borderopacity="0.25"
     inkscape:showpageshadow="2"
     inkscape:pageopacity="0.0"
     inkscape:pagecheckerboard="0"
     inkscape:deskcolor="#d1d1d1"
     showguides="true"
     inkscape:zoom="3.5533908"
     inkscape:cx="72.325285"
     inkscape:cy="79.079397"
     inkscape:window-width="1400"
     inkscape:window-height="847"
     inkscape:window-x="46"
     inkscape:window-y="25"
     inkscape:window-maximized="0"
     inkscape:current-layer="svg2">
    <sodipodi:guide
       position="-33.207718,49.907001"
       orientation="0,-1"
       id="guide2"
       inkscape:locked="false" />
  </sodipodi:namedview>
  <path
     d="m 75.873366,31.524989 h -2.3086 v -5.7109 c 0,-4.8008 -3.8984,-8.6992 -8.6992,-8.6992 h -22.461 c -0.44922,0 -0.87891,-0.21094 -1.1484,-0.57031 l -3.5703,-4.6602 c -1.4492,-1.8984 -3.75,-3.0312 -6.1289,-3.0312 l -13.852,0.0039 c -4.8008,0 -8.6992004,3.8984 -8.6992004,8.6992 v 43.5 c 0,4.8008 3.8984004,8.6992 8.6992004,8.6992 h 53.879 0.01172 c 0.17969,0 0.35938,-0.01953 0.53906,-0.05859 0.05078,-0.01172 0.10156,-0.01953 0.16016,-0.03125 0.12891,-0.03125 0.25,-0.07031 0.37109,-0.12109 0.05078,-0.01953 0.10156,-0.03125 0.14844,-0.05859 0.16016,-0.07031 0.30859,-0.14844 0.44922,-0.25 0.01953,-0.01172 0.03125,-0.03125 0.05078,-0.03906 0.12891,-0.08984 0.25,-0.19141 0.35938,-0.30078 0.03906,-0.03125 0.07031,-0.07031 0.10156,-0.10938 0.08984,-0.08984 0.17188,-0.19141 0.25,-0.30078 0.03125,-0.03906 0.05859,-0.08984 0.08984,-0.12891 0.07031,-0.12109 0.14062,-0.23828 0.19922,-0.37109 0.01953,-0.03906 0.03906,-0.07031 0.05078,-0.10938 0,-0.01172 0.01172,-0.01172 0.01172,-0.01953 l 9.7695,-24.07 c 1.1211,-2.7617 0.80078,-5.8789 -0.87109,-8.3516 -1.6602,-2.4375 -4.4297,-3.9102 -7.4023,-3.9102 z m -58.168,-16.668 h 13.852 c 0.53125,0 1.0508,0.25 1.3711,0.67969 l 3.5703,4.6602 c 1.3984,1.8281 3.6094,2.9219 5.9102,2.9219 h 22.461 c 1.4883,0 2.6992,1.2109 2.6992,2.6992 v 5.7109 l -34.383,-0.0039 c -5.2383,0 -9.9414,3.3086 -11.711,8.25 l -6.4688,18.07 v -40.289 c 0,-1.4883 1.207,-2.6992 2.6992,-2.6992 z m 60.879,26.699 -9.0117,22.199 h -50.309 l 7.8711,-21.961 c 0.91016,-2.5508 3.3516,-4.2695 6.0586,-4.2695 h 42.68 c 0.98828,0 1.8789,0.46875 2.4297,1.2891 0.55078,0.82031 0.65234,1.8203 0.28125,2.7422 z"
     id="path1" />
  <text
     x="0"
     y="117.5"
     font-size="5px"
     font-weight="bold"
     font-family="'Arbeit Regular', Helvetica, Arial-Unicode, Arial, Sans-serif"
     fill="#000000"
     id="text1">Created by Acharyas</text>
  <text
     x="0"
     y="122.5"
     font-size="5px"
     font-weight="bold"
     font-family="'Arbeit Regular', Helvetica, Arial-Unicode, Arial, Sans-serif"
     fill="#000000"
     id="text2">from Noun Project</text>
</svg>
