<?xml version="1.0" encoding="UTF-8" standalone="no"?>
<svg
   version="1.1"
   viewBox="-5 -10 110 110"
   id="svg2"
   sodipodi:docname="goaticon.svg"
   width="110"
   height="110"
   inkscape:version="1.4 (e7c3feb1, 2024-10-09)"
   xmlns:inkscape="http://www.inkscape.org/namespaces/inkscape"
   xmlns:sodipodi="http://sodipodi.sourceforge.net/DTD/sodipodi-0.dtd"
   xmlns="http://www.w3.org/2000/svg"
   xmlns:svg="http://www.w3.org/2000/svg">
  <defs
     id="defs2" />
  <sodipodi:namedview
     id="namedview2"
     pagecolor="#ffffff"
     bordercolor="#000000"
     borderopacity="0.25"
     inkscape:showpageshadow="2"
     inkscape:pageopacity="0.0"
     inkscape:pagecheckerboard="0"
     inkscape:deskcolor="#d1d1d1"
     inkscape:zoom="4.7250798"
     inkscape:cx="38.517868"
     inkscape:cy="97.458671"
     inkscape:window-width="1872"
     inkscape:window-height="1240"
     inkscape:window-x="0"
     inkscape:window-y="396"
     inkscape:window-maximized="0"
     inkscape:current-layer="svg2" />
  <path
     d="m 48.634911,88.193274 c -4.4883,0 -6.7617,-7.6211 -7.4219,-14.59 -13.406,-3.3281 -23.379,-15.469 -23.379,-29.898 0,-3.6406 0.62109,-7.1797 1.8516,-10.551 -4.8906,-1.2109 -17.4800012,-4.8086 -16.4690012,-9.5508 0.42188,-2 2.8789,-3.0195 7.5000012,-3.1211 3.7812,-0.08984 8.6289,0.46094 13.68,1.5312 0.21094,0.03906 0.41016,0.08984 0.60938,0.12891 -0.01172,-2.5586 -0.53906,-5.3008 -1.5508,-7.9102 -1.5586,-4.039101 -4.1484,-7.5000008 -7.1016,-9.5000008 -0.07813,-0.05078 -0.16016,-0.12109 -0.23047,-0.19141 -0.12891,-0.12109 -0.23047,-0.26953 -0.30078,-0.42188 -0.10156,-0.19922 -0.14844,-0.42187 -0.14844,-0.62891 0,-0.21094 0.03906,-0.42969 0.12891,-0.64062 0.07031,-0.16016 0.17188,-0.30078 0.28906,-0.42969 0.07031,-0.070313 0.14844,-0.14062 0.23047,-0.19922 0.55859,-0.39844 1.1797,-0.73047 1.8398,-0.98047 2.3906,-0.92187992 5.0781,-0.78124992 7.7812,0.42188 4.4102,1.9492 8.3516,6.5195 10.539,12.2110008 0.17188,0.44922 0.32812,0.89062 0.48047,1.3281 3.6719,-1.5117 7.6289,-2.3086 11.68,-2.3086 4.0508,0 8.0117,0.80078 11.68,2.3086 0.14844,-0.44141 0.30859,-0.89062 0.48047,-1.3398 2.1914,-5.6914008 6.1289,-10.2500008 10.539,-12.1990008 2.6992,-1.19919992 5.3906,-1.33979992 7.7812,-0.41016 0.66016,0.25 1.2812,0.57812 1.8398,0.98047 0.0781,0.058594 0.16016,0.12109 0.23047,0.19922 0.12109,0.12891 0.21875,0.26953 0.28906,0.42969 0.0898,0.19922 0.12891,0.42188 0.12891,0.64062 0,0.21874 -0.0508,0.42969 -0.14844,0.62891 -0.0781,0.14844 -0.17969,0.30078 -0.30859,0.42188 -0.0703,0.07031 -0.14844,0.12891 -0.23047,0.17969 -2.9492,1.9883 -5.5391,5.4491998 -7.1016,9.5000008 -1.0117,2.6211 -1.5391,5.3594 -1.5391,7.9102 0.19922,-0.03906 0.39844,-0.08984 0.60156,-0.12891 5.0508,-1.0703 9.8984,-1.6211 13.68,-1.5312 4.6211,0.10156 7.0781,1.1211 7.5,3.1211 1.0117,4.75 -11.578,8.3398 -16.469,9.5508 1.2305,3.3711 1.8516,6.9102 1.8516,10.551 0,14.43 -9.9688,26.57 -23.379,29.898 -0.67188,6.9688 -2.9453,14.59 -7.4336,14.59 z m -4.3398,-13.988 c 0.78906,7.1016 2.9805,10.988 4.3398,10.988 1.3593,0 3.5508,-3.8906 4.3398,-10.988 -2.8398,0.39844 -5.8398,0.39844 -8.6797,0 z m 5.8398,-11.082 v 8.3398 c 1.4219,-0.07812 2.8086,-0.26172 4.1602,-0.53906 0.03125,-0.01172 0.05859,-0.01172 0.08984,-0.01953 12.578,-2.6484 22.051,-13.84 22.051,-27.199 0,-3.8203 -0.76172,-7.5195 -2.2617,-10.988 0,-0.01172 -0.01172,-0.01953 -0.01172,-0.01953 -1.1016,-2.5391 -2.5508,-4.8789 -4.3281,-6.9609 -0.03125,-0.03125 -0.05859,-0.07031 -0.08984,-0.10156 -0.14062,-0.17188 -0.28906,-0.32813 -0.44141,-0.48828 0,0 0,-0.01172 -0.01172,-0.01172 -5.2617,-5.8594 -12.801,-9.2188 -20.672,-9.2188 -7.871,0 -15.391,3.3516 -20.648,9.1992 -0.01172,0.01953 -0.03125,0.03125 -0.03906,0.05078 -0.12891,0.14062 -0.26172,0.28906 -0.37891,0.42969 -0.03906,0.05078 -0.07813,0.10156 -0.12891,0.14844 -1.7695,2.0703 -3.2188,4.3984 -4.3086,6.9297 -0.01172,0.01953 -0.01172,0.03125 -0.01953,0.05078 -1.5,3.4688 -2.25,7.1719 -2.25,10.988 0,13.359 9.4688,24.551 22.051,27.199 0.03125,0.01172 0.05859,0.01172 0.08984,0.01953 1.3516,0.28125 2.7383,0.46094 4.1602,0.53906 v -8.3477 l -3.3203,-3.1719 c -0.60156,-0.57031 -0.62109,-1.5195 -0.05078,-2.1211 0.570309,-0.6016 1.5195,-0.62109 2.1211,-0.05078 l 2.7383,2.625 2.7383,-2.6211 c 0.60156,-0.57031 1.5508,-0.55078 2.1211,0.05078 0.57031,0.60156 0.55078,1.5508 -0.05078,2.1211 z m 23,-38.09 c 1.2695,1.6484 2.3594,3.4414 3.2695,5.3281 8.7891,-2.0703 13.91,-4.8906 14.641,-6.1211 -1.2383,-0.89062 -7.7188,-1.3789 -17.539,0.71094 -0.13281,0.02344 -0.25,0.05078 -0.37109,0.08203 z M 6.2249098,24.244214 c 0.73047,1.2305 5.8516012,4.0508 14.6410012,6.1211 0.91016,-1.8906 2,-3.6797 3.2695,-5.3281 -0.12109,-0.03125 -0.23828,-0.05078 -0.37109,-0.07813 -9.8203,-2.0938 -16.2890012,-1.6133 -17.5390012,-0.71484 z m 56.8320012,-7.75 c 2.25,1.1914 4.3516,2.6602 6.25,4.3906 0.14844,-2.5508 0.73047,-5.1914 1.6992,-7.7305 1.4492,-3.7500008 3.6211,-6.9883008 6.2305,-9.3398008 -1.4492,-0.32812 -3.0508,-0.12891 -4.6992,0.60156 -3.6992,1.6406 -7.0391,5.5781002 -8.9492,10.5390008 -0.19141,0.51953 -0.375,1.0391 -0.53125,1.5391 z m -43.031,-12.6800008 c 2.6094,2.3516 4.7812,5.5898 6.2305,9.3398008 0.98047,2.5312 1.5586,5.1719 1.7109,7.7188 1.8984,-1.7188 4,-3.1914 6.25,-4.3789 -0.16016,-0.5 -0.32812,-1.0195 -0.53906,-1.5312 -1.9102,-4.9688006 -5.2617,-8.9102008 -8.9609,-10.5510008 -1.6406,-0.72656 -3.2539,-0.9375 -4.6914,-0.59766 z m 37.699,43.9100008 c -0.82812,0 -1.5,-0.67188 -1.5,-1.5 v -13.891 c 0,-0.82812 0.67188,-1.5 1.5,-1.5 0.82812,0 1.5,0.67188 1.5,1.5 v 13.891 c 0,0.82812 -0.67969,1.5 -1.5,1.5 z m -18.18,0 c -0.82812,0 -1.5,-0.67188 -1.5,-1.5 v -13.891 c 0,-0.82812 0.67188,-1.5 1.5,-1.5 0.82812,0 1.5,0.67188 1.5,1.5 v 13.891 c 0,0.82812 -0.67188,1.5 -1.5,1.5 z"
     id="path1" />
</svg>
