<?xml version="1.0" encoding="UTF-8" standalone="no"?>
<svg
   version="1.1"
   x="0px"
   y="0px"
   viewBox="0 0 100 100"
   xml:space="preserve"
   id="svg5"
   sodipodi:docname="trash-can.svg"
   width="100"
   height="100"
   inkscape:version="1.4 (e7c3feb1, 2024-10-09)"
   xmlns:inkscape="http://www.inkscape.org/namespaces/inkscape"
   xmlns:sodipodi="http://sodipodi.sourceforge.net/DTD/sodipodi-0.dtd"
   xmlns="http://www.w3.org/2000/svg"
   xmlns:svg="http://www.w3.org/2000/svg"><defs
     id="defs5" /><sodipodi:namedview
     id="namedview5"
     pagecolor="#ffffff"
     bordercolor="#000000"
     borderopacity="0.25"
     inkscape:showpageshadow="2"
     inkscape:pageopacity="0.0"
     inkscape:pagecheckerboard="true"
     inkscape:deskcolor="#d1d1d1"
     inkscape:zoom="3.4539174"
     inkscape:cx="53.851896"
     inkscape:cy="39.520343"
     inkscape:window-width="1472"
     inkscape:window-height="888"
     inkscape:window-x="40"
     inkscape:window-y="38"
     inkscape:window-maximized="0"
     inkscape:current-layer="svg5" /><g
     id="g4"><path
       d="m 42,67 c 1.66,0 3,-1.34 3,-3 V 43.49 c 0,-1.66 -1.34,-3 -3,-3 -1.66,0 -3,1.34 -3,3 V 64 c 0,1.66 1.34,3 3,3 z"
       id="path1" /><path
       d="m 18,29 h 2.21 l 3.34,45.06 c 0.37,5.01 4.6,8.94 9.63,8.94 h 33.64 c 5.03,0 9.25,-3.93 9.63,-8.94 L 79.79,29 H 82 c 1.66,0 3,-1.34 3,-3 0,-1.66 -1.34,-3 -3,-3 H 80.23 19.77 18 c -1.66,0 -3,1.34 -3,3 0,1.66 1.34,3 3,3 z m 55.77,0 -3.31,44.62 C 70.32,75.52 68.72,77 66.82,77 H 33.18 c -1.9,0 -3.5,-1.49 -3.64,-3.38 L 26.23,29 Z"
       id="path2" /><path
       d="m 58,67 c 1.66,0 3,-1.34 3,-3 V 43.49 c 0,-1.66 -1.34,-3 -3,-3 -1.66,0 -3,1.34 -3,3 V 64 c 0,1.66 1.34,3 3,3 z"
       id="path3" /><path
       d="m 40,18 h 20 c 1.66,0 3,-1.34 3,-3 0,-1.66 -1.34,-3 -3,-3 H 40 c -1.66,0 -3,1.34 -3,3 0,1.66 1.34,3 3,3 z"
       id="path4" /></g></svg>
